<?xml version="1.0" encoding="UTF-8"?>
<svg width="1365" height="600" version="1.1" viewBox="0 0 1365 1365" xmlns="http://www.w3.org/2000/svg" xmlns:cc="http://creativecommons.org/ns#" xmlns:dc="http://purl.org/dc/elements/1.1/" xmlns:rdf="http://www.w3.org/1999/02/22-rdf-syntax-ns#" xmlns:xlink="http://www.w3.org/1999/xlink">
 <metadata>
  <rdf:RDF>
   <cc:Work rdf:about="">
    <dc:format>image/svg+xml</dc:format>
    <dc:type rdf:resource="http://purl.org/dc/dcmitype/StillImage"/>
    <dc:title/>
   </cc:Work>
  </rdf:RDF>
 </metadata>
 <defs>
  <linearGradient id="linearGradient252" x1="660" x2="660" y1="467" y2="121" gradientTransform="matrix(1.47 0 0 1.47 -234 179)" gradientUnits="userSpaceOnUse">
   <stop stop-color="#a02c2c" offset="0"/>
   <stop stop-color="#ff8080" offset="1"/>
  </linearGradient>
  <linearGradient id="linearGradient260" x1="664" x2="664" y1="1078" y2="697" gradientTransform="matrix(1.47 0 0 1.47 -204 -613)" gradientUnits="userSpaceOnUse">
   <stop stop-color="#000000" offset="0"/>
   <stop stop-color="#666666" offset="1"/>
  </linearGradient>
 </defs>
 <path d="m217 358c-44.1 6.32-82.6 20.4-112 55.2-21 24.9-26.3 56.4-30.4 87.1-7.81 58.8-11.8 107 39 148 33.8 27.6 75.1 10.4 113 19.3 21.1 4.98 42.1 8.98 37.1 36.2-3.27 17.9-23.6 31-40.7 33.2-44.1 5.5-89.3-3.56-133-3.56-9.95 0-30.4-6.19-38.8-1.53-6.98 3.88-6.77 14.2-7.76 21.2-2.82 19.6-4.58 39.3-7.25 58.9-0.995 7.29-5.13 20.1 3.48 24.3 16.5 8 44 9.12 62.1 11.2 51.1 5.98 107 11.4 159 3.03 32.5-5.27 68.7-20.3 90.2-45.8 17.5-20.9 22.8-45.5 28.2-71.3 12.3-58.3 20.5-127-36.6-165-39-26.1-76-15.6-119-21.6-17.8-2.48-32.3-10.9-30.5-31 1.26-13.7 5.64-28.9 18.7-35.6 18.9-5.13 41-6.32 58.8-5.1 28-0.686 56.3 0.818 84.4 1.5 11.9 0.29 25.4 1.1 40.7-0.381 7.11-6.27 7.04-14.1 8.04-21.2 2.66-18.9 4.18-37.9 6.44-56.9 0.989-8.29 3.23-17.7-4.9-23.3-11.8-8.11-34.4-9.23-48.4-11.6-43.8-7.3-94.9-11.9-139-5.53m343 119c-4.52 57.2-19 114-25.4 171-5.39 47.8-15 95.6-22 143-2.09 14.1-8.53 46.6-5.71 56.3 2.32 7.98 26.3 5.35 32.8 5.28l67.4-0.736c7.93-0.0865 20.1 2.28 24.5-6.18 8.34-41.3 10-53.6 13.6-80.1 11.2-62.3 22.4-126 30.2-188 2.7-21.6 6.71-43.2 10.3-64.7 1.49-8.99 1.25-21 6.32-28.9 5.91-9.17 21.5-6.43 30.8-6.43h60.8c7.59 0 18.6 1.92 25-3.14 6.63-5.28 6.2-14.8 7.26-22.4 2.86-20.3 5.22-40.6 8.15-60.8 1.02-7.05 5.49-20.2-0.359-26-5.21-5.14-15.7-3.42-22.4-3.42-159 3.77-197 0.901-341 2.31-7.69 4.7-7.6 17.2-8.29 25.2-1.78 20.3-3.96 40.6-6.44 60.8-0.81 6.61-4.53 20.5 1.74 25.4 6.37 5.05 22.5 2.02 30.2 2.02h82.4m483-79.4c-20 4.42-40 15.7-58.9 23.6-35.9 15.1-72 29.8-108 44.8-13.1 5.48-48.4 13.3-52.1 28.6-4.54 18.9 33.5 27.4 46.2 32.5 41.6 17 82 36.6 124 53.8 15.3 6.31 35.8 20.3 53 16.9 17.3-3.46 34.7-13.8 51-20.4 38-15.4 76-31.1 114-47.2 12.8-5.45 46.7-10.6 50.4-25.8 4.93-20.4-28.8-28.8-42.5-34.7-42.6-18.3-84.6-37.8-128-55.5-15.4-6.35-31.5-20.5-49-16.6m-243 148c-9.15 5.09-8.06 16.5-8.06 25.4v147c0 10-2.48 24.1 2.31 33.3 8.08 15.4 32.1 20.3 46.7 27 40.7 18.6 80.3 40.4 122 57.4 12.9 5.33 39 25.2 52.8 17.6 9.68-5.39 8.06-18.1 8.06-27.4v-149c0-9.85 2.62-24.3-2.02-33.3-7.19-13.9-28.3-16.9-41.1-23.6-41.1-21.4-84.9-39-128-57.4-12.4-5.33-39.8-24.3-52.8-17m471 0.981c-26.1 5.85-52.7 21.5-76.5 33.3-25.7 12.7-52.8 22.3-78.5 35-13.5 6.68-42 11.4-47.9 26.8-5.31 14-1.18 36.1-1.18 51v114c0 13.9-6.7 48.9 15.7 46.6 21.5-2.18 45.7-18.2 64.7-27.7 30.7-15.2 63.4-26.3 94.2-41.5 13.1-6.49 44-11.9 49.8-26.6 5.4-13.8 1.18-36.2 1.18-50.9v-118c0-17.5 5.59-48.2-21.6-42.1m204 323v1.96h13.7z" fill="url(#linearGradient252)"/>
 <path d="m849 365-11.8 92.2c47.5-18.4 94.4-38.6 141-58.6 25.5-10.8 52-26.3 80.4-23.6 14.5 1.37 26.3 10.9 39.2 16.6 28.8 12.8 57.7 25 86.3 38.1 42.2 19.3 119 32.1 96.1 94.2l17.7 1.96c6.68-53.6 12.7-105 18.8-161-162 0.233-329 0.107-468 0.107m-439 290c5.1-12 4.56-28.2 6.42-41.2 4.29-30.1 8.23-60.2 12.4-90.2 1.32-9.55 8.22-34.7-3.84-40-7.75-3.38-14.7 6.6-20.8 9.65-6.72 3.36-14.3 2.85-21.6 2.86-44.4 0.0176-88.9-1.98-133-1.96-14.9 0-39.1 2.47-36.9 23.4 1.04 9.76 13.7 9.71 21.2 9.89 26.2 0.645 50.6 0.331 76.5 4.49 58 9.32 99.9 65.8 100 123m112 298c14.3 3.62 28.8 15.5 43.2 21 30.9 11.8 69.8 14.8 102 6.31 30.3-7.98 59.8-23.1 82.4-45 11.4-11.1 19.4-31.6 33.5-39.1 7.5-4.03 19.1-2.02 27.3-2.02h60.8c8.22 0 19.8-2.02 27.3 2.02 9.72 5.25 15.6 19.1 22.5 27.4 15.9 17.2 34.8 33.3 54.2 42.4 22.2 9.98 44.4 16.5 68.7 18.2 98.6 6.75 182-68.4 182-167-39.3 10.8-76.4 32.7-114 48.7-25 10.7-50.4 14.1-66.7-11.5-13.9 16.6-24 24.7-47.1 21.2-14.8-2.26-29.3-13.5-43.2-19.2-40.9-16.9-82.5-36.5-122-57.1-19.1-10-44.4-13.9-56.9-33.2-7.68-11.7-5.83-25.9-5.83-39.2v-80.4c0-35.7-17.5-125 35.3-126l-3.92-25.5h-64.7c-6.55 0-18.6-2.27-24.1 2.02-5.82 4.53-5.72 16.8-6.83 23.5-3.48 20.9-6.02 42-9.91 62.8-11.9 63.7-20.6 128-30.9 192-3.73 23.2-1.94 62.7-15.1 82.3-9.22 13.8-24.1 11.9-38.7 11.9h-92.2c-14.3 0-27.7-0.0927-33.4-15.7-6.24-17 3.29-37.7 5.38-54.9 13.8-109 31.6-203 43.7-304h-53c-5.7 0-15.4-1.73-19.6 3.14-5.04 5.85-4.85 18.9-5.86 26.3-2.79 20.3-5.74 40.5-8.67 60.8-10.4 71.5-18.3 144-26.9 216-2.61 21.8-16.7 63.7-8.05 84.1 8.19 19.4 40.3 5.22 55.3 11.2 9.28 3.7 15 16.9 21 24.4 9.46 12 20.7 19.3 30.8 30.3m-460-331-11.8 90.2c51 0.422 102 4.17 153 3.92 9.52-0.0456 46.4-3.96 41.6-21-3.11-10.8-40.7-6.5-49.4-6.5-25 0-58.2 0.075-80.1-13.7-21.5-13.6-33.5-40-53.3-53m-19.6 237c17.6 39.5 37.9 62.6 66.7 94.2 7.79 4.73 15.3 9.35 23.5 13 22.6 10.2 45.8 17.2 70.6 18.3 47.4 2.08 93.8-13.6 129-45.3 12.3-10.9 19.9-24.7 30.6-36.9 6.87-7.87 22.6-11.1 26.8-20.1 5.18-11.1 4.4-28.6 5.7-40.8 2.3-21.5 7.34-43.1 7.52-64.7-19.8 1.53-32.2 39.1-46 52.6-23.3 23-58.2 33.1-89.4 40.4-45.8 10.6-111 7.2-157 0.757-21.7-3.01-46.9-15-68.7-11.4m1434 9.81v1.96h13.7z" fill="url(#linearGradient260)"/>
</svg>
